<svg width="91" height="90" viewBox="0 0 91 90" fill="none" xmlns="http://www.w3.org/2000/svg">
<g clip-path="url(#clip0_121_106)">
<path d="M26.2155 16.8887C28.8536 16.8887 31.2386 17.108 33.4239 17.5918C35.5783 18.0755 37.4373 18.8237 38.9898 19.8784C40.5283 20.933 41.7292 22.3112 42.5926 24.083C43.428 25.8409 43.8667 28.0234 43.8667 30.5715C43.8667 33.339 43.2226 35.6705 41.9626 37.5437C40.6886 39.4196 38.8267 40.913 36.3236 42.114C39.7211 43.0955 42.2411 44.8084 43.9117 47.2552C45.5964 49.7302 46.4008 52.689 46.4008 56.1034C46.4008 58.9159 45.917 61.3177 44.8623 63.3399C43.8496 65.3605 42.3554 67.101 40.5114 68.4081C38.7086 69.7131 36.5711 70.6496 34.2564 71.2796C31.9208 71.9104 29.5123 72.231 27.093 72.2331H0.197021V16.9196H26.2126L26.2155 16.8887ZM63.7314 62.4905C65.3739 64.1031 67.742 64.9084 70.8358 64.9065C73.0464 64.9084 74.9551 64.3468 76.562 63.2218C78.1595 62.139 79.1101 60.9352 79.4926 59.7062H89.1901C87.6826 64.4959 85.2639 67.9524 82.0717 70.0196C78.8795 72.1149 75.0123 73.1246 70.5292 73.1246C67.3792 73.1246 64.5808 72.6409 62.0045 71.6312C59.5792 70.6738 57.3827 69.2162 55.5583 67.3534C53.8145 65.5215 52.4664 63.3099 51.5139 60.7187C50.0851 56.8318 50.1076 55.2849 50.1076 52.208C50.1076 49.1902 50.6195 46.4368 51.632 43.8437C52.5744 41.354 53.9984 39.0746 55.8226 37.1359C57.6817 35.2177 59.808 33.7805 62.342 32.6527C64.862 31.5249 67.5873 31.0271 70.6614 31.0271C74.0758 31.0271 77.0036 31.643 79.5826 32.9902C82.0316 34.2401 84.1618 36.0345 85.8095 38.2355C87.4661 40.4321 88.622 42.9662 89.3392 45.8237C90.0564 48.6362 90.2758 51.5949 90.1295 54.7449H61.2873C61.2873 57.8949 62.342 60.8677 63.9536 62.4793L63.647 62.5974L63.7314 62.4905ZM25.3211 62.679C26.508 62.679 27.6498 62.5609 28.7186 62.3274C29.7321 62.1295 30.7006 61.7472 31.5761 61.1996C32.3664 60.7018 33.0414 59.9677 33.5392 59.0171C34.023 58.1227 34.2423 56.8796 34.2423 55.4143C34.2423 52.6018 33.4211 50.5796 31.8405 49.3505C30.2289 48.1496 28.1336 47.5477 25.5123 47.5477H12.3442V62.738H25.3239V62.6199L25.3211 62.679ZM76.3567 41.498C75.0236 40.0468 72.827 39.2705 70.1298 39.2705C68.3861 39.2705 66.9376 39.549 65.7648 40.1649C64.6854 40.6881 63.7347 41.4429 62.9805 42.3755C62.3064 43.204 61.8078 44.1609 61.5151 45.188C61.2542 46.0564 61.0873 46.9503 61.0173 47.8543H78.8739C78.6095 45.0418 77.628 42.9774 76.3258 41.5121V41.5571L76.3567 41.498ZM24.6489 39.1834C26.8033 39.1834 28.5892 38.6855 29.9955 37.6449C31.4017 36.6352 32.0767 34.9337 32.0767 32.6218C32.0767 31.3337 31.8123 30.279 31.4017 29.4577C30.9458 28.6722 30.301 28.0129 29.5258 27.5396C28.6891 27.0533 27.77 26.7253 26.8145 26.5721C25.7763 26.3757 24.7211 26.2824 23.6645 26.2937H12.3133V39.1834H24.6489ZM58.7645 20.5955H81.1464V26.0434H58.7645V20.5505V20.5955Z" fill="white"/>
</g>
<defs>
<clipPath id="clip0_121_106">
<rect width="90" height="90" fill="white" transform="translate(0.199951)"/>
</clipPath>
</defs>
</svg>
